<?xml version="1.0" encoding="utf-8"?>
<!-- Generator: Adobe Illustrator 16.0.0, SVG Export Plug-In . SVG Version: 6.00 Build 0)  -->
<!DOCTYPE svg PUBLIC "-//W3C//DTD SVG 1.1//EN" "http://www.w3.org/Graphics/SVG/1.1/DTD/svg11.dtd">
<svg version="1.1" id="Layer_1" xmlns="http://www.w3.org/2000/svg" xmlns:xlink="http://www.w3.org/1999/xlink" x="0px" y="0px"
	 width="500px" height="500px" viewBox="0 0 500 500" enable-background="new 0 0 500 500" xml:space="preserve">
<g>
	<g>
		<g>
			<g>
				
					<rect x="291.605" y="182.18" transform="matrix(0.7071 0.7072 -0.7072 0.7071 225.4427 -167.7333)" fill="#010101" width="47.134" height="12.116"/>
			</g>
			<g>
				<polygon fill="#010101" points="297.393,339.114 288.825,330.541 313.757,305.614 322.325,314.182 				"/>
			</g>
			<g>
				<polygon fill="#010101" points="250.166,386.346 189.694,325.864 198.262,317.292 250.166,369.2 280.923,338.443 
					289.49,347.012 				"/>
			</g>
			<g>
				<polygon fill="#010101" points="181.259,317.427 114.329,250.499 136.638,228.194 145.206,236.763 131.47,250.499 
					189.827,308.859 				"/>
			</g>
			<g>
				<polygon fill="#010101" points="286.458,168.089 250.171,131.803 224.171,157.8 215.601,149.232 250.171,114.662 
					295.03,159.521 				"/>
			</g>
		</g>
		<g>
			<polygon fill="#010101" points="250.166,415.289 85.38,250.499 250.171,85.723 396.871,232.423 388.298,240.991 250.171,102.864 
				102.521,250.499 250.166,398.144 364.77,283.541 373.342,292.113 			"/>
		</g>
		<g>
			<g>
				<polygon fill="#010101" points="419.281,243.006 250.171,73.891 142.581,181.474 134.011,172.906 250.171,56.75 427.85,234.438 
									"/>
			</g>
			<g>
				<polygon fill="#010101" points="250.166,444.247 56.42,250.499 124.915,181.995 133.485,190.563 73.558,250.499 
					250.166,427.107 414.035,263.247 422.604,271.811 				"/>
			</g>
		</g>
		<g>
			<g>
				<polygon fill="#010101" points="425.13,297.909 416.557,289.342 455.395,250.499 250.171,45.28 216.447,79.002 207.879,70.434 
					250.171,28.135 472.53,250.499 				"/>
			</g>
			<g>
				
					<rect x="343.646" y="344.204" transform="matrix(0.7069 0.7073 -0.7073 0.7069 360.4608 -140.4439)" fill="#010101" width="12.12" height="41.096"/>
			</g>
			<g>
				<polygon fill="#010101" points="250.166,472.863 27.802,250.499 196.401,81.895 204.972,90.472 44.942,250.499 250.166,455.723 
					321.578,384.311 330.141,392.879 				"/>
			</g>
		</g>
	</g>
	<g>
		<g>
			<g>
				<linearGradient id="SVGID_1_" gradientUnits="userSpaceOnUse" x1="472.5303" y1="250.499" x2="27.8022" y2="250.4991">
					<stop  offset="0" style="stop-color:#F15C27"/>
					<stop  offset="0.2857" style="stop-color:#F05327"/>
					<stop  offset="0.7592" style="stop-color:#EE3827"/>
					<stop  offset="0.9944" style="stop-color:#EC2227"/>
				</linearGradient>
				<polygon fill="url(#SVGID_1_)" points="327.552,209.188 294.226,175.857 302.793,167.289 336.124,200.62 				"/>
			</g>
			<g>
				<linearGradient id="SVGID_2_" gradientUnits="userSpaceOnUse" x1="472.5303" y1="250.499" x2="27.8022" y2="250.4991">
					<stop  offset="0" style="stop-color:#F15C27"/>
					<stop  offset="0.2857" style="stop-color:#F05327"/>
					<stop  offset="0.7592" style="stop-color:#EE3827"/>
					<stop  offset="0.9944" style="stop-color:#EC2227"/>
				</linearGradient>
				<polygon fill="url(#SVGID_2_)" points="297.393,339.114 288.825,330.541 313.757,305.614 322.325,314.182 				"/>
			</g>
			<g>
				<linearGradient id="SVGID_3_" gradientUnits="userSpaceOnUse" x1="472.5303" y1="250.499" x2="27.8022" y2="250.4991">
					<stop  offset="0" style="stop-color:#F15C27"/>
					<stop  offset="0.2857" style="stop-color:#F05327"/>
					<stop  offset="0.7592" style="stop-color:#EE3827"/>
					<stop  offset="0.9944" style="stop-color:#EC2227"/>
				</linearGradient>
				<polygon fill="url(#SVGID_3_)" points="250.166,386.346 189.694,325.864 198.262,317.292 250.166,369.2 280.923,338.443 
					289.49,347.012 				"/>
			</g>
			<g>
				<linearGradient id="SVGID_4_" gradientUnits="userSpaceOnUse" x1="472.5303" y1="250.499" x2="27.8022" y2="250.4991">
					<stop  offset="0" style="stop-color:#F15C27"/>
					<stop  offset="0.2857" style="stop-color:#F05327"/>
					<stop  offset="0.7592" style="stop-color:#EE3827"/>
					<stop  offset="0.9944" style="stop-color:#EC2227"/>
				</linearGradient>
				<polygon fill="url(#SVGID_4_)" points="181.259,317.427 114.329,250.499 136.638,228.194 145.206,236.763 131.47,250.499 
					189.827,308.859 				"/>
			</g>
			<g>
				<linearGradient id="SVGID_5_" gradientUnits="userSpaceOnUse" x1="472.5303" y1="250.499" x2="27.8022" y2="250.4991">
					<stop  offset="0" style="stop-color:#F15C27"/>
					<stop  offset="0.2857" style="stop-color:#F05327"/>
					<stop  offset="0.7592" style="stop-color:#EE3827"/>
					<stop  offset="0.9944" style="stop-color:#EC2227"/>
				</linearGradient>
				<polygon fill="url(#SVGID_5_)" points="286.458,168.089 250.171,131.803 224.171,157.8 215.601,149.232 250.171,114.662 
					295.03,159.521 				"/>
			</g>
		</g>
		<g>
			<linearGradient id="SVGID_6_" gradientUnits="userSpaceOnUse" x1="472.5303" y1="250.499" x2="27.8022" y2="250.4991">
				<stop  offset="0" style="stop-color:#F15C27"/>
				<stop  offset="0.2857" style="stop-color:#F05327"/>
				<stop  offset="0.7592" style="stop-color:#EE3827"/>
				<stop  offset="0.9944" style="stop-color:#EC2227"/>
			</linearGradient>
			<polygon fill="url(#SVGID_6_)" points="250.166,415.289 85.38,250.499 250.171,85.723 396.871,232.423 388.298,240.991 
				250.171,102.864 102.521,250.499 250.166,398.144 364.77,283.541 373.342,292.113 			"/>
		</g>
		<g>
			<g>
				<linearGradient id="SVGID_7_" gradientUnits="userSpaceOnUse" x1="472.5303" y1="250.499" x2="27.8022" y2="250.4991">
					<stop  offset="0" style="stop-color:#F15C27"/>
					<stop  offset="0.2857" style="stop-color:#F05327"/>
					<stop  offset="0.7592" style="stop-color:#EE3827"/>
					<stop  offset="0.9944" style="stop-color:#EC2227"/>
				</linearGradient>
				<polygon fill="url(#SVGID_7_)" points="419.281,243.006 250.171,73.891 142.581,181.474 134.011,172.906 250.171,56.75 
					427.85,234.438 				"/>
			</g>
			<g>
				<linearGradient id="SVGID_8_" gradientUnits="userSpaceOnUse" x1="472.5303" y1="250.499" x2="27.8022" y2="250.4991">
					<stop  offset="0" style="stop-color:#F15C27"/>
					<stop  offset="0.2857" style="stop-color:#F05327"/>
					<stop  offset="0.7592" style="stop-color:#EE3827"/>
					<stop  offset="0.9944" style="stop-color:#EC2227"/>
				</linearGradient>
				<polygon fill="url(#SVGID_8_)" points="250.166,444.247 56.42,250.499 124.915,181.995 133.485,190.563 73.558,250.499 
					250.166,427.107 414.035,263.247 422.604,271.811 				"/>
			</g>
		</g>
		<g>
			<g>
				<linearGradient id="SVGID_9_" gradientUnits="userSpaceOnUse" x1="472.5303" y1="250.499" x2="27.8022" y2="250.4991">
					<stop  offset="0" style="stop-color:#F15C27"/>
					<stop  offset="0.2857" style="stop-color:#F05327"/>
					<stop  offset="0.7592" style="stop-color:#EE3827"/>
					<stop  offset="0.9944" style="stop-color:#EC2227"/>
				</linearGradient>
				<polygon fill="url(#SVGID_9_)" points="425.13,297.909 416.557,289.342 455.395,250.499 250.171,45.28 216.447,79.002 
					207.879,70.434 250.171,28.135 472.53,250.499 				"/>
			</g>
			<g>
				<linearGradient id="SVGID_10_" gradientUnits="userSpaceOnUse" x1="472.5303" y1="250.499" x2="27.8022" y2="250.4991">
					<stop  offset="0" style="stop-color:#F15C27"/>
					<stop  offset="0.2857" style="stop-color:#F05327"/>
					<stop  offset="0.7592" style="stop-color:#EE3827"/>
					<stop  offset="0.9944" style="stop-color:#EC2227"/>
				</linearGradient>
				<polygon fill="url(#SVGID_10_)" points="339.461,383.568 330.893,374.996 359.952,345.937 368.521,354.504 				"/>
			</g>
			<g>
				<linearGradient id="SVGID_11_" gradientUnits="userSpaceOnUse" x1="472.5303" y1="250.499" x2="27.8022" y2="250.4991">
					<stop  offset="0" style="stop-color:#F15C27"/>
					<stop  offset="0.2857" style="stop-color:#F05327"/>
					<stop  offset="0.7592" style="stop-color:#EE3827"/>
					<stop  offset="0.9944" style="stop-color:#EC2227"/>
				</linearGradient>
				<polygon fill="url(#SVGID_11_)" points="250.166,472.863 27.802,250.499 196.401,81.895 204.972,90.472 44.942,250.499 
					250.166,455.723 321.578,384.311 330.141,392.879 				"/>
			</g>
		</g>
	</g>
</g>
</svg>
